# xmcd CD database file
#
# Track frame offsets:
#	182
#	22907
#	43945
#	75070
#	97382
#	121632
#	157170
#	179257
#	203077
#	236882
#
# Disc length: 3585 seconds
#
# Revision: 0
# Processed by: cddbd v1.5.2PL0 Copyright (c) Steve Scherf et al.
# Submitted via: CDex 1.51
#
DISCID=7a0dff0a
DTITLE=Claudio Roditi - Claudio, Rio and friends
DYEAR=1995
DGENRE=Jazz
TTITLE0=Leste
TTITLE1=La Tropezienne samba
TTITLE2=Romanza
TTITLE3=Caribe's dream
TTITLE4=Bonne Terrasse
TTITLE5=Irere
TTITLE6=Arpoador
TTITLE7=Samba de um bregue
TTITLE8=Melancia
TTITLE9=Demansinho
EXTD=YEAR: 1995
EXTT0=
EXTT1=
EXTT2=
EXTT3=
EXTT4=
EXTT5=
EXTT6=
EXTT7=
EXTT8=
EXTT9=
PLAYORDER=
